<mxfile host="app.diagrams.net" modified="2023-09-21T23:34:28.510Z" agent="Mozilla/5.0 (Macintosh; Intel Mac OS X 10_15_7) AppleWebKit/537.36 (KHTML, like Gecko) Chrome/113.0.0.0 Safari/537.36" etag="l9xDZCD9GFcQCjbj4gBu" version="21.8.0" type="github">
  <diagram id="R2lEEEUBdFMjLlhIrx00" name="Page-1">
    <mxGraphModel dx="1026" dy="693" grid="1" gridSize="10" guides="1" tooltips="1" connect="1" arrows="1" fold="1" page="1" pageScale="1" pageWidth="850" pageHeight="1100" math="0" shadow="0" extFonts="Permanent Marker^https://fonts.googleapis.com/css?family=Permanent+Marker">
      <root>
        <mxCell id="0" />
        <mxCell id="1" parent="0" />
        <mxCell id="h8WJ1p5DKp0LWrdrwNS4-8" style="edgeStyle=none;shape=connector;rounded=0;orthogonalLoop=1;jettySize=auto;html=1;exitX=1;exitY=0.5;exitDx=0;exitDy=0;labelBackgroundColor=default;strokeColor=default;align=center;verticalAlign=middle;fontFamily=Helvetica;fontSize=11;fontColor=default;endArrow=none;" edge="1" parent="1" source="h8WJ1p5DKp0LWrdrwNS4-2" target="h8WJ1p5DKp0LWrdrwNS4-9">
          <mxGeometry relative="1" as="geometry">
            <mxPoint x="368" y="250" as="targetPoint" />
          </mxGeometry>
        </mxCell>
        <mxCell id="h8WJ1p5DKp0LWrdrwNS4-11" style="edgeStyle=none;shape=connector;rounded=0;orthogonalLoop=1;jettySize=auto;html=1;exitX=0.5;exitY=1;exitDx=0;exitDy=0;labelBackgroundColor=default;strokeColor=default;align=center;verticalAlign=middle;fontFamily=Helvetica;fontSize=11;fontColor=default;endArrow=none;" edge="1" parent="1" source="h8WJ1p5DKp0LWrdrwNS4-2" target="h8WJ1p5DKp0LWrdrwNS4-12">
          <mxGeometry relative="1" as="geometry">
            <mxPoint x="288" y="340" as="targetPoint" />
          </mxGeometry>
        </mxCell>
        <mxCell id="h8WJ1p5DKp0LWrdrwNS4-2" value="Bus line&lt;br&gt;" style="whiteSpace=wrap;html=1;align=center;" vertex="1" parent="1">
          <mxGeometry x="238" y="160" width="100" height="40" as="geometry" />
        </mxCell>
        <mxCell id="h8WJ1p5DKp0LWrdrwNS4-17" style="edgeStyle=none;shape=connector;rounded=0;orthogonalLoop=1;jettySize=auto;html=1;exitX=0.25;exitY=1;exitDx=0;exitDy=0;labelBackgroundColor=default;strokeColor=default;align=center;verticalAlign=middle;fontFamily=Helvetica;fontSize=11;fontColor=default;endArrow=none;" edge="1" parent="1" source="h8WJ1p5DKp0LWrdrwNS4-3" target="h8WJ1p5DKp0LWrdrwNS4-18">
          <mxGeometry relative="1" as="geometry">
            <mxPoint x="578" y="410" as="targetPoint" />
          </mxGeometry>
        </mxCell>
        <mxCell id="h8WJ1p5DKp0LWrdrwNS4-20" style="edgeStyle=none;shape=connector;rounded=0;orthogonalLoop=1;jettySize=auto;html=1;exitX=0.75;exitY=1;exitDx=0;exitDy=0;entryX=0.5;entryY=0;entryDx=0;entryDy=0;labelBackgroundColor=default;strokeColor=default;align=center;verticalAlign=middle;fontFamily=Helvetica;fontSize=11;fontColor=default;endArrow=none;" edge="1" parent="1" source="h8WJ1p5DKp0LWrdrwNS4-3" target="h8WJ1p5DKp0LWrdrwNS4-19">
          <mxGeometry relative="1" as="geometry" />
        </mxCell>
        <mxCell id="h8WJ1p5DKp0LWrdrwNS4-21" style="edgeStyle=none;shape=connector;rounded=0;orthogonalLoop=1;jettySize=auto;html=1;exitX=0.75;exitY=0;exitDx=0;exitDy=0;labelBackgroundColor=default;strokeColor=default;align=center;verticalAlign=middle;fontFamily=Helvetica;fontSize=11;fontColor=default;endArrow=none;" edge="1" parent="1" source="h8WJ1p5DKp0LWrdrwNS4-3" target="h8WJ1p5DKp0LWrdrwNS4-22">
          <mxGeometry relative="1" as="geometry">
            <mxPoint x="638" y="200" as="targetPoint" />
          </mxGeometry>
        </mxCell>
        <mxCell id="h8WJ1p5DKp0LWrdrwNS4-3" value="stops" style="whiteSpace=wrap;html=1;align=center;" vertex="1" parent="1">
          <mxGeometry x="558" y="300" width="100" height="40" as="geometry" />
        </mxCell>
        <mxCell id="h8WJ1p5DKp0LWrdrwNS4-7" style="edgeStyle=none;shape=connector;rounded=0;orthogonalLoop=1;jettySize=auto;html=1;exitX=0.5;exitY=1;exitDx=0;exitDy=0;entryX=0.5;entryY=0;entryDx=0;entryDy=0;labelBackgroundColor=default;strokeColor=default;align=center;verticalAlign=middle;fontFamily=Helvetica;fontSize=11;fontColor=default;endArrow=none;" edge="1" parent="1" source="h8WJ1p5DKp0LWrdrwNS4-4" target="h8WJ1p5DKp0LWrdrwNS4-2">
          <mxGeometry relative="1" as="geometry" />
        </mxCell>
        <mxCell id="h8WJ1p5DKp0LWrdrwNS4-4" value="number" style="ellipse;whiteSpace=wrap;html=1;align=center;" vertex="1" parent="1">
          <mxGeometry x="213" y="90" width="100" height="40" as="geometry" />
        </mxCell>
        <mxCell id="h8WJ1p5DKp0LWrdrwNS4-10" style="edgeStyle=none;shape=connector;rounded=0;orthogonalLoop=1;jettySize=auto;html=1;exitX=1;exitY=0.5;exitDx=0;exitDy=0;entryX=0.5;entryY=0;entryDx=0;entryDy=0;labelBackgroundColor=default;strokeColor=default;align=center;verticalAlign=middle;fontFamily=Helvetica;fontSize=11;fontColor=default;endArrow=none;" edge="1" parent="1" source="h8WJ1p5DKp0LWrdrwNS4-9" target="h8WJ1p5DKp0LWrdrwNS4-3">
          <mxGeometry relative="1" as="geometry" />
        </mxCell>
        <mxCell id="h8WJ1p5DKp0LWrdrwNS4-9" value="Stop" style="shape=rhombus;perimeter=rhombusPerimeter;whiteSpace=wrap;html=1;align=center;fontFamily=Helvetica;fontSize=11;fontColor=default;" vertex="1" parent="1">
          <mxGeometry x="468" y="170" width="120" height="60" as="geometry" />
        </mxCell>
        <mxCell id="h8WJ1p5DKp0LWrdrwNS4-13" style="edgeStyle=none;shape=connector;rounded=0;orthogonalLoop=1;jettySize=auto;html=1;exitX=0;exitY=1;exitDx=0;exitDy=0;exitPerimeter=0;labelBackgroundColor=default;strokeColor=default;align=center;verticalAlign=middle;fontFamily=Helvetica;fontSize=11;fontColor=default;endArrow=none;" edge="1" parent="1" source="h8WJ1p5DKp0LWrdrwNS4-12" target="h8WJ1p5DKp0LWrdrwNS4-14">
          <mxGeometry relative="1" as="geometry">
            <mxPoint x="198" y="450" as="targetPoint" />
          </mxGeometry>
        </mxCell>
        <mxCell id="h8WJ1p5DKp0LWrdrwNS4-16" style="edgeStyle=none;shape=connector;rounded=0;orthogonalLoop=1;jettySize=auto;html=1;exitX=1;exitY=1;exitDx=0;exitDy=0;exitPerimeter=0;entryX=0.5;entryY=0;entryDx=0;entryDy=0;labelBackgroundColor=default;strokeColor=default;align=center;verticalAlign=middle;fontFamily=Helvetica;fontSize=11;fontColor=default;endArrow=none;" edge="1" parent="1" source="h8WJ1p5DKp0LWrdrwNS4-12" target="h8WJ1p5DKp0LWrdrwNS4-15">
          <mxGeometry relative="1" as="geometry" />
        </mxCell>
        <mxCell id="h8WJ1p5DKp0LWrdrwNS4-12" value="ISA" style="verticalLabelPosition=middle;verticalAlign=middle;html=1;shape=mxgraph.basic.acute_triangle;dx=0.5;fontFamily=Helvetica;fontSize=11;fontColor=default;labelPosition=center;align=center;" vertex="1" parent="1">
          <mxGeometry x="238" y="305" width="100" height="70" as="geometry" />
        </mxCell>
        <mxCell id="h8WJ1p5DKp0LWrdrwNS4-14" value="core routes" style="whiteSpace=wrap;html=1;align=center;fontFamily=Helvetica;fontSize=11;fontColor=default;" vertex="1" parent="1">
          <mxGeometry x="150" y="430" width="100" height="40" as="geometry" />
        </mxCell>
        <mxCell id="h8WJ1p5DKp0LWrdrwNS4-15" value="side routes" style="whiteSpace=wrap;html=1;align=center;fontFamily=Helvetica;fontSize=11;fontColor=default;" vertex="1" parent="1">
          <mxGeometry x="328" y="440" width="100" height="40" as="geometry" />
        </mxCell>
        <mxCell id="h8WJ1p5DKp0LWrdrwNS4-18" value="title" style="ellipse;whiteSpace=wrap;html=1;align=center;fontFamily=Helvetica;fontSize=11;fontColor=default;" vertex="1" parent="1">
          <mxGeometry x="528" y="390" width="100" height="40" as="geometry" />
        </mxCell>
        <mxCell id="h8WJ1p5DKp0LWrdrwNS4-19" value="identification number" style="ellipse;whiteSpace=wrap;html=1;align=center;fontFamily=Helvetica;fontSize=11;fontColor=default;" vertex="1" parent="1">
          <mxGeometry x="628" y="390" width="100" height="40" as="geometry" />
        </mxCell>
        <mxCell id="h8WJ1p5DKp0LWrdrwNS4-22" value="location" style="ellipse;whiteSpace=wrap;html=1;align=center;fontFamily=Helvetica;fontSize=11;fontColor=default;" vertex="1" parent="1">
          <mxGeometry x="618" y="180" width="100" height="40" as="geometry" />
        </mxCell>
        <mxCell id="h8WJ1p5DKp0LWrdrwNS4-23" value="Bus" style="whiteSpace=wrap;html=1;align=center;fontFamily=Helvetica;fontSize=11;fontColor=default;" vertex="1" parent="1">
          <mxGeometry x="150" y="570" width="100" height="40" as="geometry" />
        </mxCell>
      </root>
    </mxGraphModel>
  </diagram>
</mxfile>
